 <svg  version="1.0" xmlns="http://www.w3.org/2000/svg"  width="200.000000pt" height="200.000000pt" viewBox="0 0 200.000000 200.000000"  preserveAspectRatio="xMidYMid meet">  <g transform="translate(0.000000,200.000000) scale(0.100000,-0.100000)" fill="#f7fcff" stroke="none"> <path d="M190 1645 l0 -155 525 0 c289 0 525 -3 525 -8 0 -4 -236 -243 -525 -532 l-525 -525 122 -122 123 -123 525 525 c289 289 528 525 533 525 4 0 7 -236 7 -525 l0 -525 155 0 155 0 0 810 0 810 -810 0 -810 0 0 -155z"/> </g> </svg> 